# xmcd CD database file
#
# Track frame offsets:
#	150
#	9032
#	34891
#	68329
#	97864
#	122431
#	148312
#	177687
#	200812
#	227921
#
# Disc length: 3211 seconds
#
# Revision: 0
# Processed by: cddbd v1.5.2PL0 Copyright (c) Steve Scherf et al.
# Submitted via: CDex 1.81
#
DISCID=830c890a
DTITLE=Awake - As We Fall
DYEAR=2016
DGENRE=Jazz
TTITLE0=Winter Waltz I
TTITLE1=The Ballad of Baby C
TTITLE2=Unknown Song
TTITLE3=Snake
TTITLE4=As We Fall
TTITLE5=Imperfect Circle
TTITLE6=Hope
TTITLE7=Perpetual Motion
TTITLE8=Petite Chose
TTITLE9=Winter Waltz II
EXTD=YEAR: 2016
EXTT0=
EXTT1=
EXTT2=
EXTT3=
EXTT4=
EXTT5=
EXTT6=
EXTT7=
EXTT8=
EXTT9=
PLAYORDER=
